<svg version="1.1" id="Layer_1" xmlns="http://www.w3.org/2000/svg" xmlns:xlink="http://www.w3.org/1999/xlink" x="0px" y="0px"
	 width="100%" viewBox="0 0 1500 500" enable-background="new 0 0 1500 500" xml:space="preserve">
<path fill="#FFFFFF" opacity="0.000000" stroke="none" 
	d="
M957.000000,501.000000 
	C638.039795,501.000000 319.579529,501.000000 1.059658,501.000000 
	C1.059658,334.393921 1.059658,167.787842 1.059658,1.090875 
	C500.876984,1.090875 1000.753967,1.090875 1500.815430,1.090875 
	C1500.815430,167.666504 1500.815430,334.333221 1500.815430,501.000000 
	C1319.787720,501.000000 1138.643799,501.000000 957.000000,501.000000 
M149.722610,276.358856 
	C140.700653,264.175568 129.875168,262.221649 117.270775,270.467133 
	C91.791855,287.134888 66.272850,303.741638 40.832687,320.468292 
	C29.362530,328.009796 27.109859,339.613770 34.635574,351.099030 
	C40.743511,360.420563 46.873066,369.728027 52.957329,379.065002 
	C74.575722,412.240723 96.126801,445.460449 117.817741,478.588623 
	C124.837471,489.309723 136.358505,491.802856 147.405731,485.162048 
	C152.819839,481.907440 158.023163,478.299561 163.292435,474.807129 
	C175.620270,466.636383 187.930313,458.438782 201.060852,450.154266 
	C207.870895,450.499664 214.677307,451.013947 221.491623,451.160400 
	C247.034775,451.709381 271.816528,447.917572 295.542816,438.053253 
	C326.564880,425.155701 348.060211,403.469543 356.884033,370.609619 
	C359.538269,360.725067 360.383148,350.354645 362.676483,339.760681 
	C371.756836,308.810669 380.865997,277.869080 389.910736,246.908676 
	C403.199829,201.419785 416.503113,155.934875 429.673462,110.411552 
	C434.375153,94.160110 428.768707,84.587708 412.559143,79.882408 
	C371.675629,68.014755 330.828583,56.021423 289.950745,44.134155 
	C273.987396,39.492027 258.053223,34.719486 241.966141,30.544422 
	C232.527710,28.094881 222.002457,33.876205 218.975616,42.944813 
	C215.559753,53.178925 212.866119,63.654091 209.236298,74.419899 
	C186.301788,80.542702 166.151428,91.681702 148.364410,107.381088 
	C146.282730,98.850281 144.479553,90.238945 142.042374,81.810944 
	C139.519516,73.086685 130.086349,66.078072 122.100449,67.647194 
	C104.702080,71.065727 87.343628,74.811554 70.173706,79.221230 
	C60.152832,81.794846 54.027107,92.722694 56.236839,102.804222 
	C62.411587,130.975403 68.741280,159.114792 75.313728,187.195602 
	C77.892715,198.214325 88.739586,204.529968 99.882042,202.203827 
	C106.211845,200.882401 112.520439,199.459396 119.105537,198.813644 
	C120.462906,203.584030 121.555244,208.449371 123.224464,213.108017 
	C129.738235,231.287445 141.731949,245.529282 155.692612,258.726929 
	C153.806503,264.801270 151.920395,270.875610 149.722610,276.358856 
M990.364990,330.089386 
	C983.221985,326.593628 976.078979,323.097900 969.156799,319.710205 
	C970.798828,318.520996 973.188354,317.014740 975.323303,315.207764 
	C989.351074,303.334900 990.896606,287.677948 988.263184,270.987183 
	C986.113098,257.359772 978.375305,247.480698 965.437500,243.064850 
	C956.436951,239.992844 946.771851,237.854965 937.301025,237.390488 
	C919.183228,236.501953 900.992249,237.095093 882.831665,237.107193 
	C881.747314,237.107910 880.663208,237.406891 879.623047,237.560547 
	C879.623047,296.820496 879.623047,355.728088 879.623047,414.777405 
	C880.894775,414.866333 881.871643,414.994202 882.848511,414.994171 
	C905.007812,414.993439 927.171204,415.211914 949.324097,414.828857 
	C956.235535,414.709320 963.341614,413.726257 969.971436,411.803497 
	C987.336365,406.767365 999.794373,395.877472 1003.606140,377.747375 
	C1007.290955,360.221344 1005.493774,343.488617 990.364990,330.089386 
M1067.162476,373.105591 
	C1069.448730,379.144470 1071.009277,385.591705 1074.140015,391.155396 
	C1093.422974,425.423035 1137.479248,424.674408 1155.638916,404.054535 
	C1155.981689,403.665222 1156.593872,403.513062 1157.656860,402.938782 
	C1157.656860,407.254944 1157.656860,410.858978 1157.656860,414.729553 
	C1170.256958,414.729553 1182.496216,414.729553 1194.792603,414.729553 
	C1194.792603,352.973755 1194.792603,291.448181 1194.792603,229.980011 
	C1182.109741,229.980011 1169.837646,229.980011 1156.962036,229.980011 
	C1156.962036,258.084656 1156.962036,285.914825 1156.962036,314.474915 
	C1155.577271,313.452118 1154.923950,312.999390 1154.302612,312.506287 
	C1131.495239,294.404541 1097.864380,298.033020 1079.514526,320.553802 
	C1067.088989,335.803741 1064.075684,353.306366 1067.162476,373.105591 
M1245.436890,416.169739 
	C1264.843872,420.883057 1282.352905,417.877167 1297.625000,402.194702 
	C1297.625000,407.161499 1297.625000,410.881378 1297.625000,414.684814 
	C1310.427368,414.684814 1322.663330,414.684814 1334.886963,414.684814 
	C1334.886963,352.955048 1334.886963,291.542389 1334.886963,230.068726 
	C1322.189331,230.068726 1309.810059,230.068726 1296.789185,230.068726 
	C1296.789185,258.233124 1296.789185,286.033478 1296.789185,314.376984 
	C1279.950684,299.868774 1259.118164,298.592957 1244.062622,303.745178 
	C1221.383423,311.506348 1209.940552,328.541779 1206.412354,351.594391 
	C1202.064697,380.000458 1218.148560,407.095856 1245.436890,416.169739 
M640.485840,384.921783 
	C645.251709,374.104340 646.446350,362.711182 644.894958,351.175812 
	C641.973633,329.453735 631.214539,312.773834 610.324890,304.886047 
	C590.052490,297.231293 571.039307,300.245544 555.075867,316.093842 
	C554.928833,316.239807 554.510010,316.111969 553.863037,316.111969 
	C553.863037,312.367523 553.863037,308.607544 553.863037,304.727295 
	C541.116577,304.727295 528.727844,304.727295 516.424316,304.727295 
	C516.424316,360.305725 516.424316,415.534729 516.424316,470.768036 
	C529.144409,470.768036 541.565063,470.768036 554.427490,470.768036 
	C554.427490,448.822510 554.427490,427.133636 554.427490,405.157257 
	C588.598083,427.877563 624.440796,419.535797 640.485840,384.921783 
M1356.985107,326.516510 
	C1338.028931,352.718719 1344.180542,388.620667 1370.714844,406.646149 
	C1393.748047,422.293243 1431.022705,422.246521 1453.996460,406.542023 
	C1485.730957,384.848785 1487.607666,340.552582 1457.822144,316.243378 
	C1446.899292,307.328705 1434.279541,302.584259 1420.332520,301.516449 
	C1395.512329,299.616089 1373.895630,306.225494 1356.985107,326.516510 
M485.490845,304.374176 
	C477.571716,304.374176 469.652588,304.374176 461.443817,304.374176 
	C461.443817,321.788788 461.657837,338.438629 461.337830,355.078186 
	C461.210938,361.673706 460.614532,368.433868 458.952881,374.784393 
	C456.620270,383.699310 450.189789,387.210175 439.184204,387.104980 
	C428.722931,387.004974 422.539734,383.159027 420.163452,374.331482 
	C418.837555,369.405853 418.152252,364.177246 418.071289,359.071014 
	C417.809631,342.576324 417.961731,326.075043 417.954620,309.576324 
	C417.953918,307.971771 417.954529,306.367218 417.954529,304.658813 
	C404.980133,304.658813 392.563171,304.658813 380.148712,304.658813 
	C380.148712,328.259094 379.285004,351.615906 380.393127,374.878784 
	C381.487885,397.861603 393.089722,410.754303 414.654480,415.667114 
	C429.932190,419.147675 445.459564,419.345734 460.821198,416.411499 
	C486.310059,411.542847 497.924774,398.857269 499.119141,372.888397 
	C500.144073,350.603729 499.532806,328.243652 499.613586,305.916840 
	C499.615112,305.490204 499.226166,305.062134 498.893402,304.374207 
	C494.781647,304.374207 490.633179,304.374207 485.490845,304.374176 
M703.951355,301.353821 
	C700.504944,301.917480 696.959351,302.137695 693.628235,303.100403 
	C671.711304,309.434387 656.247986,323.098724 650.419006,345.308838 
	C644.572632,367.585175 651.054810,386.838867 668.056946,402.763062 
	C692.390564,425.553955 734.084961,420.489990 752.291870,405.375183 
	C757.662048,400.917023 762.102844,395.339203 767.415710,389.810059 
	C758.240173,385.205322 750.309631,381.391815 742.557861,377.244293 
	C739.867249,375.804688 738.234558,376.012482 736.204041,378.288757 
	C729.496826,385.807861 720.742004,388.286469 710.972778,387.863892 
	C697.199158,387.268066 687.797363,377.832794 688.468872,365.051880 
	C714.911621,365.051880 741.371338,365.051880 768.287964,365.051880 
	C769.080994,346.154022 765.970032,328.958435 751.247253,315.805786 
	C738.022034,303.990967 722.043762,300.639679 703.951355,301.353821 
M817.248169,365.558777 
	C817.250061,362.894592 816.988770,360.199554 817.297119,357.571320 
	C819.136414,341.893921 827.228271,333.607941 841.725037,334.588226 
	C847.926453,335.007568 853.997314,337.357819 860.520996,338.925232 
	C864.740784,330.372253 869.368042,320.999481 873.986938,311.622559 
	C874.491028,310.599182 874.946228,309.551727 875.649170,308.027344 
	C865.882385,302.395599 855.726807,299.856354 844.585083,301.951538 
	C833.275879,304.078156 825.082886,311.083771 817.021545,320.748749 
	C817.021545,314.333710 817.021545,309.476257 817.021545,304.767181 
	C804.078125,304.767181 791.695496,304.767181 779.454102,304.767181 
	C779.454102,341.709442 779.454102,378.259766 779.454102,414.726013 
	C792.207947,414.726013 804.630859,414.726013 817.248169,414.726013 
	C817.248169,398.479584 817.248169,382.511017 817.248169,365.558777 
M1054.043335,352.500000 
	C1054.043335,336.578125 1054.043335,320.656250 1054.043335,304.650635 
	C1041.027466,304.650635 1028.636230,304.650635 1016.267334,304.650635 
	C1016.267334,341.553772 1016.267334,378.110870 1016.267334,414.687073 
	C1028.963135,414.687073 1041.354492,414.687073 1054.043335,414.687073 
	C1054.043335,394.083038 1054.043335,373.791534 1054.043335,352.500000 
M1017.786377,272.625275 
	C1025.606445,281.411926 1036.685791,283.848114 1046.028564,278.835266 
	C1055.541382,273.731201 1060.385010,262.724060 1057.288452,252.607880 
	C1054.448364,243.329453 1048.020630,237.652817 1038.467773,236.294327 
	C1029.010376,234.949417 1021.396118,238.881210 1016.399841,246.840622 
	C1011.128845,255.237473 1011.653992,263.852020 1017.786377,272.625275 
z"/>
<path fill="#010101" opacity="1.000000" stroke="none" 
	d="
M362.056885,340.206818 
	C360.383148,350.354645 359.538269,360.725067 356.884033,370.609619 
	C348.060211,403.469543 326.564880,425.155701 295.542816,438.053253 
	C271.816528,447.917572 247.034775,451.709381 221.491623,451.160400 
	C214.677307,451.013947 207.870895,450.499664 200.214142,450.101685 
	C193.952377,449.332520 188.537354,448.615936 182.814163,447.658325 
	C146.209076,441.548126 114.835762,425.133789 85.599800,403.414917 
	C99.937149,379.335052 113.684631,356.245880 127.619576,332.841827 
	C129.972733,334.627411 131.960907,336.087128 133.897064,337.612854 
	C152.500107,352.272278 173.235352,362.894409 195.965790,370.539001 
	C201.605164,371.660767 206.961136,372.524780 212.746613,373.523224 
	C218.331970,373.681793 223.531326,374.143402 228.634399,373.636200 
	C238.361130,372.669434 248.089035,371.329071 256.569885,365.062256 
	C262.945984,360.786072 267.009308,355.171814 268.855438,347.536682 
	C272.095062,334.248199 268.608826,323.531067 258.115417,315.390381 
	C253.673279,311.944244 249.069931,308.533783 244.092224,305.979401 
	C220.232162,293.735016 196.218872,281.789185 172.050873,269.470764 
	C166.569992,265.490784 161.298294,261.777344 156.026596,258.063904 
	C141.731949,245.529282 129.738235,231.287445 123.224464,213.108017 
	C121.555244,208.449371 120.462906,203.584030 119.039703,198.037292 
	C118.585327,194.821915 118.196793,192.382919 117.887810,189.486572 
	C116.995277,161.582199 124.242119,136.786301 142.032806,115.170319 
	C144.491608,112.673843 146.667145,110.307114 148.842667,107.940384 
	C166.151428,91.681702 186.301788,80.542702 209.987549,74.370148 
	C217.088852,73.440300 223.438873,72.560219 230.232666,71.781570 
	C274.310852,71.245163 314.685181,81.804298 351.363129,106.305206 
	C339.820831,128.934845 328.615875,150.903061 317.330383,173.029190 
	C296.541718,160.396255 275.084137,151.770630 251.754486,148.546677 
	C238.143845,146.665802 224.883606,148.308807 212.882553,155.737671 
	C197.703354,165.133820 195.380981,186.138718 208.638260,197.898666 
	C214.052536,202.701431 220.285889,206.911285 226.779160,210.104706 
	C245.556946,219.339798 264.781647,227.663452 283.600189,236.819122 
	C313.498932,251.365570 339.328064,270.625061 355.218048,301.293335 
	C360.915100,313.904968 361.650787,327.026825 362.056885,340.206818 
z"/>
<path fill="#F44538" opacity="1.000000" stroke="none" 
	d="
M990.640259,330.316956 
	C1005.493774,343.488617 1007.290955,360.221344 1003.606140,377.747375 
	C999.794373,395.877472 987.336365,406.767365 969.971436,411.803497 
	C963.341614,413.726257 956.235535,414.709320 949.324097,414.828857 
	C927.171204,415.211914 905.007812,414.993439 882.848511,414.994171 
	C881.871643,414.994202 880.894775,414.866333 879.623047,414.777405 
	C879.623047,355.728088 879.623047,296.820496 879.623047,237.560547 
	C880.663208,237.406891 881.747314,237.107910 882.831665,237.107193 
	C900.992249,237.095093 919.183228,236.501953 937.301025,237.390488 
	C946.771851,237.854965 956.436951,239.992844 965.437500,243.064850 
	C978.375305,247.480698 986.113098,257.359772 988.263184,270.987183 
	C990.896606,287.677948 989.351074,303.334900 975.323303,315.207764 
	C973.188354,317.014740 970.798828,318.520996 969.156799,319.710205 
	C976.078979,323.097900 983.221985,326.593628 990.640259,330.316956 
M919.987366,381.210144 
	C920.685547,382.076904 921.431091,383.730530 922.074768,383.691803 
	C930.992188,383.155182 940.073486,383.243225 948.754395,381.442139 
	C958.125916,379.497681 962.273560,372.938416 962.268555,363.670319 
	C962.262939,353.119324 958.317993,346.291626 948.773499,344.186737 
	C939.553284,342.153351 929.922791,341.980316 919.983276,340.938812 
	C919.983276,355.054657 919.983276,367.656921 919.987366,381.210144 
M949.008789,294.136475 
	C953.379578,278.369934 945.430481,266.834534 920.275024,268.891846 
	C920.275024,281.403931 920.275024,293.931366 920.275024,307.095245 
	C924.699341,306.715240 928.819458,306.593201 932.860229,305.962921 
	C939.889771,304.866547 945.960632,302.150879 949.008789,294.136475 
z"/>
<path fill="#F44437" opacity="1.000000" stroke="none" 
	d="
M1067.098145,372.682709 
	C1064.075684,353.306366 1067.088989,335.803741 1079.514526,320.553802 
	C1097.864380,298.033020 1131.495239,294.404541 1154.302612,312.506287 
	C1154.923950,312.999390 1155.577271,313.452118 1156.962036,314.474915 
	C1156.962036,285.914825 1156.962036,258.084656 1156.962036,229.980011 
	C1169.837646,229.980011 1182.109741,229.980011 1194.792603,229.980011 
	C1194.792603,291.448181 1194.792603,352.973755 1194.792603,414.729553 
	C1182.496216,414.729553 1170.256958,414.729553 1157.656860,414.729553 
	C1157.656860,410.858978 1157.656860,407.254944 1157.656860,402.938782 
	C1156.593872,403.513062 1155.981689,403.665222 1155.638916,404.054535 
	C1137.479248,424.674408 1093.422974,425.423035 1074.140015,391.155396 
	C1071.009277,385.591705 1069.448730,379.144470 1067.098145,372.682709 
M1108.858887,371.435516 
	C1115.478882,384.184967 1130.116821,389.319122 1143.259033,383.501007 
	C1155.494263,378.084442 1161.203369,363.573822 1156.360474,350.201843 
	C1151.785400,337.569489 1138.176880,330.994965 1124.612061,334.863464 
	C1109.795288,339.089020 1103.017212,354.201447 1108.858887,371.435516 
z"/>
<path fill="#F44437" opacity="1.000000" stroke="none" 
	d="
M1245.040283,416.082397 
	C1218.148560,407.095856 1202.064697,380.000458 1206.412354,351.594391 
	C1209.940552,328.541779 1221.383423,311.506348 1244.062622,303.745178 
	C1259.118164,298.592957 1279.950684,299.868774 1296.789185,314.376984 
	C1296.789185,286.033478 1296.789185,258.233124 1296.789185,230.068726 
	C1309.810059,230.068726 1322.189331,230.068726 1334.886963,230.068726 
	C1334.886963,291.542389 1334.886963,352.955048 1334.886963,414.684814 
	C1322.663330,414.684814 1310.427368,414.684814 1297.625000,414.684814 
	C1297.625000,410.881378 1297.625000,407.161499 1297.625000,402.194702 
	C1282.352905,417.877167 1264.843872,420.883057 1245.040283,416.082397 
M1295.789429,371.007904 
	C1299.610962,360.554901 1298.984009,350.669525 1291.403564,342.054077 
	C1283.590698,333.174500 1269.803955,331.133453 1259.416504,336.960419 
	C1248.811890,342.909210 1243.896362,355.657288 1247.640503,368.034912 
	C1250.895020,378.793793 1258.499146,384.291504 1269.480469,385.575134 
	C1280.368774,386.847931 1289.673340,381.913574 1295.789429,371.007904 
z"/>
<path fill="#020202" opacity="1.000000" stroke="none" 
	d="
M640.318542,385.263977 
	C624.440796,419.535797 588.598083,427.877563 554.427490,405.157257 
	C554.427490,427.133636 554.427490,448.822510 554.427490,470.768036 
	C541.565063,470.768036 529.144409,470.768036 516.424316,470.768036 
	C516.424316,415.534729 516.424316,360.305725 516.424316,304.727295 
	C528.727844,304.727295 541.116577,304.727295 553.863037,304.727295 
	C553.863037,308.607544 553.863037,312.367523 553.863037,316.111969 
	C554.510010,316.111969 554.928833,316.239807 555.075867,316.093842 
	C571.039307,300.245544 590.052490,297.231293 610.324890,304.886047 
	C631.214539,312.773834 641.973633,329.453735 644.894958,351.175812 
	C646.446350,362.711182 645.251709,374.104340 640.318542,385.263977 
M582.200439,333.928040 
	C563.105896,331.766235 549.418762,347.776398 554.550659,367.478455 
	C557.682190,379.500519 569.673645,387.146545 582.084045,385.559265 
	C595.627747,383.826996 604.740540,373.791107 604.973938,360.350861 
	C605.222351,346.039215 597.205017,336.379333 582.200439,333.928040 
z"/>
<path fill="#F44437" opacity="1.000000" stroke="none" 
	d="
M1357.206909,326.235718 
	C1373.895630,306.225494 1395.512329,299.616089 1420.332520,301.516449 
	C1434.279541,302.584259 1446.899292,307.328705 1457.822144,316.243378 
	C1487.607666,340.552582 1485.730957,384.848785 1453.996460,406.542023 
	C1431.022705,422.246521 1393.748047,422.293243 1370.714844,406.646149 
	C1344.180542,388.620667 1338.028931,352.718719 1357.206909,326.235718 
M1387.000122,355.926453 
	C1386.955078,357.421204 1386.859497,358.916382 1386.872803,360.410614 
	C1386.979248,372.396790 1393.807373,381.762787 1404.541382,384.679932 
	C1416.670654,387.976227 1428.605103,383.623535 1434.594238,373.719208 
	C1440.426392,364.074768 1439.186523,350.182770 1431.721924,342.107300 
	C1424.597534,334.399811 1415.686523,332.249603 1405.802612,334.678955 
	C1395.240234,337.275024 1389.181030,344.453064 1387.000122,355.926453 
z"/>
<path fill="#030303" opacity="1.000000" stroke="none" 
	d="
M485.987793,304.374207 
	C490.633179,304.374207 494.781647,304.374207 498.893402,304.374207 
	C499.226166,305.062134 499.615112,305.490204 499.613586,305.916840 
	C499.532806,328.243652 500.144073,350.603729 499.119141,372.888397 
	C497.924774,398.857269 486.310059,411.542847 460.821198,416.411499 
	C445.459564,419.345734 429.932190,419.147675 414.654480,415.667114 
	C393.089722,410.754303 381.487885,397.861603 380.393127,374.878784 
	C379.285004,351.615906 380.148712,328.259094 380.148712,304.658813 
	C392.563171,304.658813 404.980133,304.658813 417.954529,304.658813 
	C417.954529,306.367218 417.953918,307.971771 417.954620,309.576324 
	C417.961731,326.075043 417.809631,342.576324 418.071289,359.071014 
	C418.152252,364.177246 418.837555,369.405853 420.163452,374.331482 
	C422.539734,383.159027 428.722931,387.004974 439.184204,387.104980 
	C450.189789,387.210175 456.620270,383.699310 458.952881,374.784393 
	C460.614532,368.433868 461.210938,361.673706 461.337830,355.078186 
	C461.657837,338.438629 461.443817,321.788788 461.443817,304.374176 
	C469.652588,304.374176 477.571716,304.374176 485.987793,304.374207 
z"/>
<path fill="#020202" opacity="1.000000" stroke="none" 
	d="
M704.408447,301.315521 
	C722.043762,300.639679 738.022034,303.990967 751.247253,315.805786 
	C765.970032,328.958435 769.080994,346.154022 768.287964,365.051880 
	C741.371338,365.051880 714.911621,365.051880 688.468872,365.051880 
	C687.797363,377.832794 697.199158,387.268066 710.972778,387.863892 
	C720.742004,388.286469 729.496826,385.807861 736.204041,378.288757 
	C738.234558,376.012482 739.867249,375.804688 742.557861,377.244293 
	C750.309631,381.391815 758.240173,385.205322 767.415710,389.810059 
	C762.102844,395.339203 757.662048,400.917023 752.291870,405.375183 
	C734.084961,420.489990 692.390564,425.553955 668.056946,402.763062 
	C651.054810,386.838867 644.572632,367.585175 650.419006,345.308838 
	C656.247986,323.098724 671.711304,309.434387 693.628235,303.100403 
	C696.959351,302.137695 700.504944,301.917480 704.408447,301.315521 
M729.364685,337.352814 
	C724.544128,328.193878 715.839539,324.258698 705.089844,326.378571 
	C695.576233,328.254700 690.280579,334.056458 689.409058,343.628723 
	C703.234314,343.628723 717.050415,343.628723 731.307861,343.628723 
	C730.714172,341.500946 730.230530,339.767822 729.364685,337.352814 
z"/>
<path fill="#DE8883" opacity="1.000000" stroke="none" 
	d="
M362.366699,339.983765 
	C361.650787,327.026825 360.915100,313.904968 355.462524,301.034180 
	C361.325287,280.828400 366.948944,261.229431 372.648895,241.652618 
	C384.283234,201.693604 395.938995,161.740784 407.629120,121.798042 
	C411.156830,109.744568 405.695251,98.682243 393.672729,95.094948 
	C367.934631,87.415169 342.088928,80.096581 316.302155,72.579124 
	C296.079712,66.683830 275.875366,60.726311 255.671143,54.768795 
	C243.582672,51.204330 230.974457,59.421059 229.788910,71.680138 
	C223.438873,72.560219 217.088852,73.440300 210.298584,74.172409 
	C212.866119,63.654091 215.559753,53.178925 218.975616,42.944813 
	C222.002457,33.876205 232.527710,28.094881 241.966141,30.544422 
	C258.053223,34.719486 273.987396,39.492027 289.950745,44.134155 
	C330.828583,56.021423 371.675629,68.014755 412.559143,79.882408 
	C428.768707,84.587708 434.375153,94.160110 429.673462,110.411552 
	C416.503113,155.934875 403.199829,201.419785 389.910736,246.908676 
	C380.865997,277.869080 371.756836,308.810669 362.366699,339.983765 
z"/>
<path fill="#030303" opacity="1.000000" stroke="none" 
	d="
M817.248169,366.050598 
	C817.248169,382.511017 817.248169,398.479584 817.248169,414.726013 
	C804.630859,414.726013 792.207947,414.726013 779.454102,414.726013 
	C779.454102,378.259766 779.454102,341.709442 779.454102,304.767181 
	C791.695496,304.767181 804.078125,304.767181 817.021545,304.767181 
	C817.021545,309.476257 817.021545,314.333710 817.021545,320.748749 
	C825.082886,311.083771 833.275879,304.078156 844.585083,301.951538 
	C855.726807,299.856354 865.882385,302.395599 875.649170,308.027344 
	C874.946228,309.551727 874.491028,310.599182 873.986938,311.622559 
	C869.368042,320.999481 864.740784,330.372253 860.520996,338.925232 
	C853.997314,337.357819 847.926453,335.007568 841.725037,334.588226 
	C827.228271,333.607941 819.136414,341.893921 817.297119,357.571320 
	C816.988770,360.199554 817.250061,362.894592 817.248169,366.050598 
z"/>
<path fill="#EEC06A" opacity="1.000000" stroke="none" 
	d="
M183.122314,447.899323 
	C188.537354,448.615936 193.952377,449.332520 199.807480,450.150574 
	C187.930313,458.438782 175.620270,466.636383 163.292435,474.807129 
	C158.023163,478.299561 152.819839,481.907440 147.405731,485.162048 
	C136.358505,491.802856 124.837471,489.309723 117.817741,478.588623 
	C96.126801,445.460449 74.575722,412.240723 52.957329,379.065002 
	C46.873066,369.728027 40.743511,360.420563 34.635574,351.099030 
	C27.109859,339.613770 29.362530,328.009796 40.832687,320.468292 
	C66.272850,303.741638 91.791855,287.134888 117.270775,270.467133 
	C129.875168,262.221649 140.700653,264.175568 149.870850,277.062805 
	C148.681793,282.181366 147.344513,286.595947 145.708191,290.856934 
	C136.607269,282.537140 126.334145,280.312561 118.301086,285.504059 
	C97.111183,299.198456 76.003418,313.024445 55.038769,327.060669 
	C46.389320,332.851654 44.133522,345.493500 49.787392,354.183075 
	C73.690590,390.920380 97.803886,427.522064 121.506706,464.387909 
	C127.762543,474.117798 142.089005,475.267365 149.844696,470.439972 
	C159.849106,464.212891 169.665375,457.682037 179.514191,451.208252 
	C180.860291,450.323425 181.926529,449.012817 183.122314,447.899323 
z"/>
<path fill="#F44437" opacity="1.000000" stroke="none" 
	d="
M1054.043335,353.000000 
	C1054.043335,373.791534 1054.043335,394.083038 1054.043335,414.687073 
	C1041.354492,414.687073 1028.963135,414.687073 1016.267334,414.687073 
	C1016.267334,378.110870 1016.267334,341.553772 1016.267334,304.650635 
	C1028.636230,304.650635 1041.027466,304.650635 1054.043335,304.650635 
	C1054.043335,320.656250 1054.043335,336.578125 1054.043335,353.000000 
z"/>
<path fill="#DE8883" opacity="1.000000" stroke="none" 
	d="
M146.007217,291.010559 
	C147.344513,286.595947 148.681793,282.181366 150.026672,277.358337 
	C151.920395,270.875610 153.806503,264.801270 155.859604,258.395416 
	C161.298294,261.777344 166.569992,265.490784 171.745239,269.701233 
	C169.081726,278.565460 166.237778,286.859894 164.013214,295.317230 
	C160.770264,307.646240 166.803238,317.892395 179.041397,321.506500 
	C208.932770,330.333832 238.833618,339.129120 268.730652,347.937347 
	C267.009308,355.171814 262.945984,360.786072 256.312927,364.786591 
	C236.009506,358.817657 216.297775,353.094055 196.324249,347.224121 
	C190.715485,345.692810 185.368484,344.307831 179.770279,342.667480 
	C171.465637,339.965637 163.452301,337.375946 155.348907,335.108063 
	C144.575302,332.092804 137.984726,321.337799 140.698563,310.563782 
	C142.347931,304.015778 144.229797,297.526306 146.007217,291.010559 
z"/>
<path fill="#ADDAF1" opacity="1.000000" stroke="none" 
	d="
M148.603546,107.660736 
	C146.667145,110.307114 144.491608,112.673843 141.645203,114.961563 
	C139.326019,108.003937 137.722107,101.114296 136.019257,94.249207 
	C133.298187,83.279167 122.831337,76.534386 111.831680,78.889740 
	C101.971107,81.001175 92.265762,83.959953 82.334831,85.584541 
	C73.103767,87.094635 64.503036,97.927078 67.357193,110.477066 
	C72.417618,132.728241 77.628418,154.945679 82.878059,177.153168 
	C84.992104,186.096207 92.490814,192.166016 101.606827,191.914185 
	C107.021317,191.764633 112.408691,190.633652 117.808258,189.943909 
	C118.196793,192.382919 118.585327,194.821915 118.906219,197.671539 
	C112.520439,199.459396 106.211845,200.882401 99.882042,202.203827 
	C88.739586,204.529968 77.892715,198.214325 75.313728,187.195602 
	C68.741280,159.114792 62.411587,130.975403 56.236839,102.804222 
	C54.027107,92.722694 60.152832,81.794846 70.173706,79.221230 
	C87.343628,74.811554 104.702080,71.065727 122.100449,67.647194 
	C130.086349,66.078072 139.519516,73.086685 142.042374,81.810944 
	C144.479553,90.238945 146.282730,98.850281 148.603546,107.660736 
z"/>
<path fill="#F44538" opacity="1.000000" stroke="none" 
	d="
M1017.554565,272.345337 
	C1011.653992,263.852020 1011.128845,255.237473 1016.399841,246.840622 
	C1021.396118,238.881210 1029.010376,234.949417 1038.467773,236.294327 
	C1048.020630,237.652817 1054.448364,243.329453 1057.288452,252.607880 
	C1060.385010,262.724060 1055.541382,273.731201 1046.028564,278.835266 
	C1036.685791,283.848114 1025.606445,281.411926 1017.554565,272.345337 
z"/>
<path fill="#EBB2AE" opacity="1.000000" stroke="none" 
	d="
M230.232666,71.781570 
	C230.974457,59.421059 243.582672,51.204330 255.671143,54.768795 
	C275.875366,60.726311 296.079712,66.683830 316.302155,72.579124 
	C342.088928,80.096581 367.934631,87.415169 393.672729,95.094948 
	C405.695251,98.682243 411.156830,109.744568 407.629120,121.798042 
	C395.938995,161.740784 384.283234,201.693604 372.648895,241.652618 
	C366.948944,261.229431 361.325287,280.828400 355.422668,300.676514 
	C339.328064,270.625061 313.498932,251.365570 283.600189,236.819122 
	C264.781647,227.663452 245.556946,219.339798 226.779160,210.104706 
	C220.285889,206.911285 214.052536,202.701431 208.638260,197.898666 
	C195.380981,186.138718 197.703354,165.133820 212.882553,155.737671 
	C224.883606,148.308807 238.143845,146.665802 251.754486,148.546677 
	C275.084137,151.770630 296.541718,160.396255 317.330383,173.029190 
	C328.615875,150.903061 339.820831,128.934845 351.363129,106.305206 
	C314.685181,81.804298 274.310852,71.245163 230.232666,71.781570 
z"/>
<path fill="#F3D7A2" opacity="1.000000" stroke="none" 
	d="
M145.708191,290.856934 
	C144.229797,297.526306 142.347931,304.015778 140.698563,310.563782 
	C137.984726,321.337799 144.575302,332.092804 155.348907,335.108063 
	C163.452301,337.375946 171.465637,339.965637 179.887756,343.000244 
	C184.526947,350.248688 188.888596,356.853210 193.012238,363.603180 
	C194.244446,365.620178 194.810928,368.043884 195.682419,370.281250 
	C173.235352,362.894409 152.500107,352.272278 133.897064,337.612854 
	C131.960907,336.087128 129.972733,334.627411 127.619576,332.841827 
	C113.684631,356.245880 99.937149,379.335052 85.599800,403.414917 
	C114.835762,425.133789 146.209076,441.548126 182.814178,447.658325 
	C181.926529,449.012817 180.860291,450.323425 179.514191,451.208252 
	C169.665375,457.682037 159.849106,464.212891 149.844696,470.439972 
	C142.089005,475.267365 127.762543,474.117798 121.506706,464.387909 
	C97.803886,427.522064 73.690590,390.920380 49.787392,354.183075 
	C44.133522,345.493500 46.389320,332.851654 55.038769,327.060669 
	C76.003418,313.024445 97.111183,299.198456 118.301086,285.504059 
	C126.334145,280.312561 136.607269,282.537140 145.708191,290.856934 
z"/>
<path fill="#D9ECF7" opacity="1.000000" stroke="none" 
	d="
M117.887810,189.486572 
	C112.408691,190.633652 107.021317,191.764633 101.606827,191.914185 
	C92.490814,192.166016 84.992104,186.096207 82.878059,177.153168 
	C77.628418,154.945679 72.417618,132.728241 67.357193,110.477066 
	C64.503036,97.927078 73.103767,87.094635 82.334831,85.584541 
	C92.265762,83.959953 101.971107,81.001175 111.831680,78.889740 
	C122.831337,76.534386 133.298187,83.279167 136.019257,94.249207 
	C137.722107,101.114296 139.326019,108.003937 141.361938,115.091309 
	C124.242119,136.786301 116.995277,161.582199 117.887810,189.486572 
z"/>
<path fill="#EBB2AE" opacity="1.000000" stroke="none" 
	d="
M268.855438,347.536682 
	C238.833618,339.129120 208.932770,330.333832 179.041397,321.506500 
	C166.803238,317.892395 160.770264,307.646240 164.013214,295.317230 
	C166.237778,286.859894 169.081726,278.565460 171.954407,269.967743 
	C196.218872,281.789185 220.232162,293.735016 244.092224,305.979401 
	C249.069931,308.533783 253.673279,311.944244 258.115417,315.390381 
	C268.608826,323.531067 272.095062,334.248199 268.855438,347.536682 
z"/>
<path fill="#FDFBFA" opacity="1.000000" stroke="none" 
	d="
M196.586029,347.370453 
	C216.297775,353.094055 236.009506,358.817657 255.978210,364.816895 
	C248.089035,371.329071 238.361130,372.669434 228.634399,373.636200 
	C223.531326,374.143402 218.331970,373.681793 212.668243,373.197510 
	C206.968964,364.281769 201.777496,355.826111 196.586029,347.370453 
z"/>
<path fill="#E8BD6C" opacity="1.000000" stroke="none" 
	d="
M196.324249,347.224121 
	C201.777496,355.826111 206.968964,364.281769 212.238770,373.063110 
	C206.961136,372.524780 201.605164,371.660767 195.965790,370.539001 
	C194.810928,368.043884 194.244446,365.620178 193.012238,363.603180 
	C188.888596,356.853210 184.526947,350.248688 180.138962,343.255676 
	C185.368484,344.307831 190.715485,345.692810 196.324249,347.224121 
z"/>
<path fill="#FFFDFD" opacity="1.000000" stroke="none" 
	d="
M919.985352,380.734680 
	C919.983276,367.656921 919.983276,355.054657 919.983276,340.938812 
	C929.922791,341.980316 939.553284,342.153351 948.773499,344.186737 
	C958.317993,346.291626 962.262939,353.119324 962.268555,363.670319 
	C962.273560,372.938416 958.125916,379.497681 948.754395,381.442139 
	C940.073486,383.243225 930.992188,383.155182 922.074768,383.691803 
	C921.431091,383.730530 920.685547,382.076904 919.985352,380.734680 
z"/>
<path fill="#FFFDFD" opacity="1.000000" stroke="none" 
	d="
M948.907715,294.522552 
	C945.960632,302.150879 939.889771,304.866547 932.860229,305.962921 
	C928.819458,306.593201 924.699341,306.715240 920.275024,307.095245 
	C920.275024,293.931366 920.275024,281.403931 920.275024,268.891846 
	C945.430481,266.834534 953.379578,278.369934 948.907715,294.522552 
z"/>
<path fill="#FFFDFD" opacity="1.000000" stroke="none" 
	d="
M1108.691895,371.083862 
	C1103.017212,354.201447 1109.795288,339.089020 1124.612061,334.863464 
	C1138.176880,330.994965 1151.785400,337.569489 1156.360474,350.201843 
	C1161.203369,363.573822 1155.494263,378.084442 1143.259033,383.501007 
	C1130.116821,389.319122 1115.478882,384.184967 1108.691895,371.083862 
z"/>
<path fill="#FFFDFD" opacity="1.000000" stroke="none" 
	d="
M1295.604736,371.343567 
	C1289.673340,381.913574 1280.368774,386.847931 1269.480469,385.575134 
	C1258.499146,384.291504 1250.895020,378.793793 1247.640503,368.034912 
	C1243.896362,355.657288 1248.811890,342.909210 1259.416504,336.960419 
	C1269.803955,331.133453 1283.590698,333.174500 1291.403564,342.054077 
	C1298.984009,350.669525 1299.610962,360.554901 1295.604736,371.343567 
z"/>
<path fill="#FDFDFD" opacity="1.000000" stroke="none" 
	d="
M582.648926,333.960205 
	C597.205017,336.379333 605.222351,346.039215 604.973938,360.350861 
	C604.740540,373.791107 595.627747,383.826996 582.084045,385.559265 
	C569.673645,387.146545 557.682190,379.500519 554.550659,367.478455 
	C549.418762,347.776398 563.105896,331.766235 582.648926,333.960205 
z"/>
<path fill="#FFFDFD" opacity="1.000000" stroke="none" 
	d="
M1387.036865,355.486603 
	C1389.181030,344.453064 1395.240234,337.275024 1405.802612,334.678955 
	C1415.686523,332.249603 1424.597534,334.399811 1431.721924,342.107300 
	C1439.186523,350.182770 1440.426392,364.074768 1434.594238,373.719208 
	C1428.605103,383.623535 1416.670654,387.976227 1404.541382,384.679932 
	C1393.807373,381.762787 1386.979248,372.396790 1386.872803,360.410614 
	C1386.859497,358.916382 1386.955078,357.421204 1387.036865,355.486603 
z"/>
<path fill="#FAFAFA" opacity="1.000000" stroke="none" 
	d="
M729.555786,337.693726 
	C730.230530,339.767822 730.714172,341.500946 731.307861,343.628723 
	C717.050415,343.628723 703.234314,343.628723 689.409058,343.628723 
	C690.280579,334.056458 695.576233,328.254700 705.089844,326.378571 
	C715.839539,324.258698 724.544128,328.193878 729.555786,337.693726 
z"/>
</svg>