<svg version="1.1" id="Layer_1" xmlns="http://www.w3.org/2000/svg" xmlns:xlink="http://www.w3.org/1999/xlink" x="0px" y="0px"
	 width="100%" viewBox="0 0 500 500" enable-background="new 0 0 500 500" xml:space="preserve">
<path fill="#FFFFFF" opacity="0.000000" stroke="none" 
	d="
M501.000000,185.000000 
	C501.000000,290.666656 501.000000,395.833282 501.000000,500.999939 
	C334.333405,500.999969 167.666794,500.999969 1.000146,501.000000 
	C1.000097,334.333435 1.000097,167.666870 1.000049,1.000235 
	C167.666519,1.000157 334.333038,1.000157 500.999786,1.000078 
	C501.000000,62.166668 501.000000,123.333336 501.000000,185.000000 
M166.993301,270.050140 
	C161.771729,259.284424 146.343063,254.128250 134.809601,261.703827 
	C106.873901,280.052948 78.983482,298.479675 50.751350,316.364563 
	C39.208481,323.676910 35.591064,337.917603 43.564281,350.029907 
	C73.371140,395.310120 102.850182,440.806030 132.513000,486.181244 
	C140.329712,498.138458 153.500748,500.776947 165.475754,493.009064 
	C169.382080,490.475098 173.290802,487.944427 177.174194,485.375610 
	C191.860611,475.660858 206.537048,465.931061 222.054977,456.094452 
	C223.382019,456.181396 224.710083,456.254883 226.035934,456.357239 
	C259.418793,458.934082 292.109985,456.230072 323.278351,442.982178 
	C341.835510,435.094635 358.510559,424.526276 370.910828,408.083862 
	C385.708954,388.461945 392.350952,366.050537 394.619598,341.377960 
	C409.126862,291.535980 423.630493,241.692947 438.142609,191.852386 
	C448.157623,157.456787 458.218048,123.074348 468.188873,88.665955 
	C472.046661,75.353004 465.326050,63.664806 451.897705,59.761295 
	C429.281952,53.187042 406.693085,46.520466 384.087585,39.910782 
	C346.039032,28.785664 307.959686,17.764679 269.949371,6.510516 
	C256.048737,2.394794 245.085358,9.356901 241.597656,18.587713 
	C237.395065,29.710602 234.898026,41.477901 231.109390,53.436161 
	C223.874756,55.776890 216.468262,57.693771 209.440079,60.543636 
	C193.129166,67.157585 179.003922,77.257820 165.491241,88.530983 
	C163.683167,80.804504 161.683487,73.116852 160.108063,65.343224 
	C157.096436,50.483017 145.946091,43.349892 131.118729,46.766224 
	C115.643555,50.331825 100.088326,53.549507 84.608925,57.097412 
	C75.426010,59.202148 69.617409,64.884209 66.891891,74.060287 
	C64.932175,80.658112 67.668274,86.494339 69.011147,92.516357 
	C75.168259,120.127640 81.441422,147.714645 87.938332,175.247757 
	C90.419586,185.762970 102.015961,192.499893 112.631195,190.284103 
	C119.750229,188.798096 126.887985,187.401764 134.426773,186.621414 
	C137.101959,194.618256 139.150009,202.896332 142.583420,210.553177 
	C149.643555,226.297974 161.161942,238.738098 173.631912,250.690369 
	C171.478653,257.360901 169.325409,264.031464 166.993301,270.050140 
z"/>
<path fill="#010101" opacity="1.000000" stroke="none" 
	d="
M173.976151,250.034912 
	C161.161942,238.738098 149.643555,226.297974 142.583420,210.553177 
	C139.150009,202.896332 137.101959,194.618256 134.263351,185.877121 
	C133.699814,182.404556 133.299698,179.676270 132.985291,176.491852 
	C132.112686,147.037003 139.341278,120.644081 158.244385,97.725983 
	C161.043259,94.740608 163.547012,91.902336 166.050781,89.064072 
	C179.003922,77.257820 193.129166,67.157585 209.440079,60.543636 
	C216.468262,57.693771 223.874756,55.776890 231.838715,53.264435 
	C239.071548,52.184368 245.575058,51.276028 252.533264,50.470291 
	C300.129700,49.400280 343.619232,60.926189 383.178009,87.178482 
	C370.812897,111.446999 358.831909,134.961563 346.810852,158.554794 
	C325.257355,145.483337 302.669342,135.983032 277.952301,132.590790 
	C262.889404,130.523499 248.063583,131.648285 234.611969,140.051163 
	C221.154816,148.457504 213.195267,172.937347 230.961945,186.430298 
	C236.243011,190.441040 241.578308,194.635681 247.487869,197.517487 
	C268.227509,207.631149 289.375519,216.908768 310.095673,227.060608 
	C342.185394,242.782944 370.296844,263.154755 387.204498,296.346497 
	C393.948822,311.097229 394.798279,326.383423 394.139313,341.899933 
	C392.350952,366.050537 385.708954,388.461945 370.910828,408.083862 
	C358.510559,424.526276 341.835510,435.094635 323.278351,442.982178 
	C292.109985,456.230072 259.418793,458.934082 226.035934,456.357239 
	C224.710083,456.254883 223.382019,456.181396 221.208862,456.040497 
	C214.677811,455.169739 208.992859,454.352905 202.958588,453.362000 
	C163.695007,446.739227 129.864746,429.278503 98.367065,405.981537 
	C113.627129,380.338257 128.444565,355.438782 143.087402,330.832703 
	C152.193100,337.127411 160.646576,343.621521 169.728806,349.066986 
	C178.815018,354.514832 188.386902,359.224335 198.019196,363.664581 
	C204.441360,366.625061 211.342316,368.546844 218.369278,371.112000 
	C223.900299,372.156860 229.091019,373.023224 234.677429,373.997192 
	C236.395554,374.216370 237.718033,374.424927 239.040466,374.424713 
	C254.060120,374.422424 268.896637,373.573456 282.272095,364.723663 
	C288.787506,359.811981 293.562347,354.037842 295.057373,345.606476 
	C298.318939,331.155823 294.561523,319.387726 282.766357,310.930145 
	C275.225342,305.522949 267.408997,300.326355 259.170410,296.098633 
	C236.295273,284.359741 213.134750,273.176880 189.920990,261.485962 
	C184.495392,257.476654 179.235764,253.755783 173.976151,250.034912 
z"/>
<path fill="#FF9F99" opacity="1.000000" stroke="none" 
	d="
M252.078552,50.367691 
	C245.575058,51.276028 239.071548,52.184368 232.115356,53.029472 
	C234.898026,41.477901 237.395065,29.710602 241.597656,18.587713 
	C245.085358,9.356901 256.048737,2.394794 269.949371,6.510516 
	C307.959686,17.764679 346.039032,28.785664 384.087585,39.910782 
	C406.693085,46.520466 429.281952,53.187042 451.897705,59.761295 
	C465.326050,63.664806 472.046661,75.353004 468.188873,88.665955 
	C458.218048,123.074348 448.157623,157.456787 438.142609,191.852386 
	C423.630493,241.692947 409.126862,291.535980 394.379456,341.638947 
	C394.798279,326.383423 393.948822,311.097229 387.452881,296.091125 
	C389.399750,289.936371 391.228912,284.424286 392.850159,278.851654 
	C403.268921,243.039886 413.611725,207.206009 424.041351,171.397385 
	C430.578247,148.954010 437.338593,126.575165 443.776642,104.103752 
	C447.691040,90.440910 441.622803,78.970459 427.976837,74.923004 
	C378.546509,60.261715 329.057129,45.797974 279.521698,31.496256 
	C276.208313,30.539623 272.156219,30.889526 268.742432,31.771940 
	C259.250885,34.225357 254.221634,41.106121 252.078552,50.367691 
z"/>
<path fill="#FFCF77" opacity="1.000000" stroke="none" 
	d="
M203.307922,453.536072 
	C208.992859,454.352905 214.677811,455.169739 220.789978,456.096710 
	C206.537048,465.931061 191.860611,475.660858 177.174194,485.375610 
	C173.290802,487.944427 169.382080,490.475098 165.475754,493.009064 
	C153.500748,500.776947 140.329712,498.138458 132.513000,486.181244 
	C102.850182,440.806030 73.371140,395.310120 43.564281,350.029907 
	C35.591064,337.917603 39.208481,323.676910 50.751350,316.364563 
	C78.983482,298.479675 106.873901,280.052948 134.809601,261.703827 
	C146.343063,254.128250 161.771729,259.284424 167.035873,270.807617 
	C165.721298,276.061035 164.364166,280.557037 162.705811,284.895996 
	C156.804596,278.781036 150.000092,275.885559 141.803879,277.033112 
	C139.058426,277.417511 136.003677,277.831482 133.768875,279.279327 
	C110.790871,294.165985 87.837463,309.097412 65.131317,324.393555 
	C56.024426,330.528503 53.904911,344.070038 59.872047,353.308289 
	C71.037865,370.595154 82.273109,387.837158 93.479858,405.097595 
	C107.489388,426.674866 121.550095,448.219116 135.489227,469.841736 
	C143.286118,481.936493 156.580490,484.802002 168.749374,476.815552 
	C177.491074,471.078369 186.270630,465.398438 194.981033,459.614288 
	C197.840942,457.715179 200.536957,455.569183 203.307922,453.536072 
z"/>
<path fill="#FF9F99" opacity="1.000000" stroke="none" 
	d="
M163.007019,285.053009 
	C164.364166,280.557037 165.721298,276.061035 167.125305,271.133545 
	C169.325409,264.031464 171.478653,257.360901 173.804031,250.362640 
	C179.235764,253.755783 184.495392,257.476654 189.889160,261.893188 
	C187.336105,272.145233 184.455994,281.652557 182.010437,291.270386 
	C178.941666,303.339325 186.067886,314.651886 198.058945,318.058380 
	C218.440948,323.848633 238.728363,329.970978 259.079102,335.872406 
	C270.992462,339.327118 282.951447,342.624298 294.889923,345.992371 
	C293.562347,354.037842 288.787506,359.811981 282.003632,364.489319 
	C275.874634,362.703217 270.348389,361.040863 264.797791,359.464355 
	C248.786209,354.916595 232.764816,350.403412 216.438171,345.733093 
	C210.740387,344.065918 205.351700,342.542328 199.977112,341.005920 
	C199.991211,340.993134 199.993103,341.031036 199.889679,340.814270 
	C199.592255,340.321075 199.329330,340.151672 198.606445,340.057922 
	C190.261292,337.697479 182.343613,335.233704 174.344788,333.069824 
	C161.226288,329.520996 154.485886,318.360443 157.784988,305.222015 
	C159.476288,298.486633 161.263290,291.775238 163.007019,285.053009 
z"/>
<path fill="#B9E6FF" opacity="1.000000" stroke="none" 
	d="
M165.771011,88.797531 
	C163.547012,91.902336 161.043259,94.740608 158.081863,97.387733 
	C156.053299,90.269707 154.386459,83.362907 152.931824,76.411697 
	C150.071915,62.744946 139.133850,55.245937 125.483978,57.948933 
	C115.432999,59.939262 105.398628,62.046097 95.428917,64.405479 
	C84.471214,66.998665 75.091591,79.012756 78.696632,91.908676 
	C81.274475,101.130066 82.911797,110.613373 85.000351,119.972771 
	C87.988762,133.364700 91.027931,146.745346 94.004181,160.139954 
	C96.500336,171.373901 105.104790,180.227829 117.696419,178.986053 
	C122.781677,178.484528 127.832893,177.637695 132.899597,176.947998 
	C133.299698,179.676270 133.699814,182.404556 134.058655,185.549072 
	C126.887985,187.401764 119.750229,188.798096 112.631195,190.284103 
	C102.015961,192.499893 90.419586,185.762970 87.938332,175.247757 
	C81.441422,147.714645 75.168259,120.127640 69.011147,92.516357 
	C67.668274,86.494339 64.932175,80.658112 66.891891,74.060287 
	C69.617409,64.884209 75.426010,59.202148 84.608925,57.097412 
	C100.088326,53.549507 115.643555,50.331825 131.118729,46.766224 
	C145.946091,43.349892 157.096436,50.483017 160.108063,65.343224 
	C161.683487,73.116852 163.683167,80.804504 165.771011,88.797531 
z"/>
<path fill="#FEC3BF" opacity="1.000000" stroke="none" 
	d="
M252.533264,50.470295 
	C254.221634,41.106121 259.250885,34.225357 268.742432,31.771940 
	C272.156219,30.889526 276.208313,30.539623 279.521698,31.496256 
	C329.057129,45.797974 378.546509,60.261715 427.976837,74.923004 
	C441.622803,78.970459 447.691040,90.440910 443.776642,104.103752 
	C437.338593,126.575165 430.578247,148.954010 424.041351,171.397385 
	C413.611725,207.206009 403.268921,243.039886 392.850159,278.851654 
	C391.228912,284.424286 389.399750,289.936371 387.418335,295.731812 
	C370.296844,263.154755 342.185394,242.782944 310.095673,227.060608 
	C289.375519,216.908768 268.227509,207.631149 247.487869,197.517487 
	C241.578308,194.635681 236.243011,190.441040 230.961945,186.430298 
	C213.195267,172.937347 221.154816,148.457504 234.611969,140.051163 
	C248.063583,131.648285 262.889404,130.523499 277.952301,132.590790 
	C302.669342,135.983032 325.257355,145.483337 346.810852,158.554794 
	C358.831909,134.961563 370.812897,111.446999 383.178009,87.178482 
	C343.619232,60.926189 300.129700,49.400280 252.533264,50.470295 
z"/>
<path fill="#FEE2AE" opacity="1.000000" stroke="none" 
	d="
M162.705811,284.895996 
	C161.263290,291.775238 159.476288,298.486633 157.784988,305.222015 
	C154.485886,318.360443 161.226288,329.520996 174.344788,333.069824 
	C182.343613,335.233704 190.261292,337.697479 198.715576,340.267731 
	C199.412308,340.776001 199.671448,340.950043 199.993103,341.031036 
	C199.993103,341.031036 199.991211,340.993134 200.012756,341.360718 
	C200.822601,343.154968 201.548157,344.620758 202.409439,346.001862 
	C207.598694,354.323181 212.819046,362.625092 218.028992,370.933502 
	C211.342316,368.546844 204.441360,366.625061 198.019196,363.664581 
	C188.386902,359.224335 178.815018,354.514832 169.728806,349.066986 
	C160.646576,343.621521 152.193100,337.127411 143.087402,330.832703 
	C128.444565,355.438782 113.627129,380.338257 98.367065,405.981537 
	C129.864746,429.278503 163.695007,446.739227 202.958588,453.362000 
	C200.536957,455.569183 197.840942,457.715179 194.981033,459.614288 
	C186.270630,465.398438 177.491074,471.078369 168.749374,476.815552 
	C156.580490,484.802002 143.286118,481.936493 135.489227,469.841736 
	C121.550095,448.219116 107.489388,426.674866 93.479858,405.097595 
	C82.273109,387.837158 71.037865,370.595154 59.872047,353.308289 
	C53.904911,344.070038 56.024426,330.528503 65.131317,324.393555 
	C87.837463,309.097412 110.790871,294.165985 133.768875,279.279327 
	C136.003677,277.831482 139.058426,277.417511 141.803879,277.033112 
	C150.000092,275.885559 156.804596,278.781036 162.705811,284.895996 
z"/>
<path fill="#E2F5FF" opacity="1.000000" stroke="none" 
	d="
M132.985291,176.491852 
	C127.832893,177.637695 122.781677,178.484528 117.696419,178.986053 
	C105.104790,180.227829 96.500336,171.373901 94.004181,160.139954 
	C91.027931,146.745346 87.988762,133.364700 85.000351,119.972771 
	C82.911797,110.613373 81.274475,101.130066 78.696632,91.908676 
	C75.091591,79.012756 84.471214,66.998665 95.428917,64.405479 
	C105.398628,62.046097 115.432999,59.939262 125.483978,57.948933 
	C139.133850,55.245937 150.071915,62.744946 152.931824,76.411697 
	C154.386459,83.362907 156.053299,90.269707 157.786743,97.534836 
	C139.341278,120.644081 132.112686,147.037003 132.985291,176.491852 
z"/>
<path fill="#FEC3BF" opacity="1.000000" stroke="none" 
	d="
M295.057373,345.606476 
	C282.951447,342.624298 270.992462,339.327118 259.079102,335.872406 
	C238.728363,329.970978 218.440948,323.848633 198.058945,318.058380 
	C186.067886,314.651886 178.941666,303.339325 182.010437,291.270386 
	C184.455994,281.652557 187.336105,272.145233 190.055145,262.181610 
	C213.134750,273.176880 236.295273,284.359741 259.170410,296.098633 
	C267.408997,300.326355 275.225342,305.522949 282.766357,310.930145 
	C294.561523,319.387726 298.318939,331.155823 295.057373,345.606476 
z"/>
<path fill="#FEFDFD" opacity="1.000000" stroke="none" 
	d="
M216.747284,345.876648 
	C232.764816,350.403412 248.786209,354.916595 264.797791,359.464355 
	C270.348389,361.040863 275.874634,362.703217 281.680481,364.560730 
	C268.896637,373.573456 254.060120,374.422424 239.040466,374.424713 
	C237.718033,374.424927 236.395554,374.216370 234.579376,373.650696 
	C228.306183,364.089966 222.526733,354.983307 216.747284,345.876648 
z"/>
<path fill="#FECE77" opacity="1.000000" stroke="none" 
	d="
M216.438171,345.733093 
	C222.526733,354.983307 228.306183,364.089966 234.183701,373.543121 
	C229.091019,373.023224 223.900299,372.156860 218.369278,371.112000 
	C212.819046,362.625092 207.598694,354.323181 202.409439,346.001862 
	C201.548157,344.620758 200.822601,343.154968 199.998657,341.373535 
	C205.351700,342.542328 210.740387,344.065918 216.438171,345.733093 
z"/>
<path fill="#FECE77" opacity="1.000000" stroke="none" 
	d="
M199.889679,340.814270 
	C199.671448,340.950043 199.412308,340.776001 199.106598,340.299072 
	C199.329330,340.151672 199.592255,340.321075 199.889679,340.814270 
z"/>
</svg>